<svg xmlns="http://www.w3.org/2000/svg" viewBox="0 0 640 640" role="img" aria-label="small black kitten">
  <defs>
    <radialGradient id="glow" cx="50%" cy="35%" r="65%">
      <stop offset="0" stop-color="#ffffff" stop-opacity=".55"/>
      <stop offset="1" stop-color="#ffffff" stop-opacity="0"/>
    </radialGradient>
    <linearGradient id="fur" x1="170" x2="470" y1="120" y2="520" gradientUnits="userSpaceOnUse">
      <stop offset="0" stop-color="#2a2435"/>
      <stop offset=".55" stop-color="#0f0d17"/>
      <stop offset="1" stop-color="#050409"/>
    </linearGradient>
    <linearGradient id="pink" x1="0" x2="1">
      <stop offset="0" stop-color="#f9a8c4"/>
      <stop offset="1" stop-color="#d8c7ff"/>
    </linearGradient>
  </defs>
  <rect width="640" height="640" rx="164" fill="#fff7fb"/>
  <circle cx="320" cy="320" r="245" fill="url(#glow)"/>
  <path d="M173 265c-29-80-21-151 12-181 41 22 75 64 97 126 25-8 51-12 78-12s53 4 78 12c22-62 56-104 97-126 33 30 41 101 12 181 39 44 61 102 61 166 0 127-89 183-248 183s-248-56-248-183c0-64 22-122 61-166Z" fill="url(#fur)"/>
  <path d="M192 125c20 17 43 48 60 95-24 10-45 24-62 41-12-44-11-101 2-136Zm256 95c17-47 40-78 60-95 13 35 14 92 2 136-17-17-38-31-62-41Z" fill="#f9a8c4" opacity=".65"/>
  <ellipse cx="247" cy="342" rx="34" ry="41" fill="#f7f0a3"/>
  <ellipse cx="393" cy="342" rx="34" ry="41" fill="#f7f0a3"/>
  <circle cx="258" cy="333" r="13" fill="#06050a"/>
  <circle cx="404" cy="333" r="13" fill="#06050a"/>
  <path d="M320 378c-12 0-21-7-21-15 0-9 9-15 21-15s21 6 21 15c0 8-9 15-21 15Z" fill="#f9a8c4"/>
  <path d="M319 378c-2 28-20 45-48 50M321 378c2 28 20 45 48 50" fill="none" stroke="#f9a8c4" stroke-width="12" stroke-linecap="round"/>
  <path d="M138 375c49-12 91-11 126 3M134 425c51-4 94 4 128 20M502 375c-49-12-91-11-126 3M506 425c-51-4-94 4-128 20" fill="none" stroke="#ffffff" stroke-opacity=".75" stroke-width="10" stroke-linecap="round"/>
  <path d="M235 523c27 31 58 46 85 46s58-15 85-46" fill="none" stroke="url(#pink)" stroke-width="22" stroke-linecap="round"/>
  <circle cx="225" cy="444" r="19" fill="#f9a8c4" opacity=".38"/>
  <circle cx="415" cy="444" r="19" fill="#f9a8c4" opacity=".38"/>
</svg>
