<svg xmlns="http://www.w3.org/2000/svg" viewBox="0 0 512 512">
  <defs>
    <linearGradient id="bg" x1="0" x2="1" y1="0" y2="1">
      <stop stop-color="#fff7fb"/>
      <stop offset=".52" stop-color="#f7ead8"/>
      <stop offset="1" stop-color="#d8c7ff"/>
    </linearGradient>
  </defs>
  <rect width="512" height="512" rx="128" fill="url(#bg)"/>
  <path d="M145 227c-22-60-16-112 9-135 32 17 57 50 75 97 19-6 39-9 60-9s41 3 60 9c18-47 43-80 75-97 25 23 31 75 9 135 30 34 47 78 47 127 0 98-68 141-191 141s-191-43-191-141c0-49 17-93 47-127Z" fill="#11101a"/>
  <ellipse cx="229" cy="288" rx="25" ry="31" fill="#f7f0a3"/>
  <ellipse cx="349" cy="288" rx="25" ry="31" fill="#f7f0a3"/>
  <circle cx="238" cy="282" r="9" fill="#11101a"/>
  <circle cx="358" cy="282" r="9" fill="#11101a"/>
  <path d="M289 324c-9 0-16-5-16-12s7-12 16-12 16 5 16 12-7 12-16 12Z" fill="#f9a8c4"/>
  <path d="M288 324c-2 19-15 32-36 39M290 324c2 19 15 32 36 39" fill="none" stroke="#f9a8c4" stroke-width="9" stroke-linecap="round"/>
  <path d="M163 329c36-10 68-9 95 2M159 368c38-3 70 4 96 16M415 329c-36-10-68-9-95 2M419 368c-38-3-70 4-96 16" fill="none" stroke="#fff" stroke-opacity=".75" stroke-width="7" stroke-linecap="round"/>
</svg>
